<?xml version="1.0" encoding="utf-8"?>
<!-- Generator: Adobe Illustrator 17.0.0, SVG Export Plug-In . SVG Version: 6.00 Build 0)  -->
<!DOCTYPE svg PUBLIC "-//W3C//DTD SVG 1.1//EN" "http://www.w3.org/Graphics/SVG/1.1/DTD/svg11.dtd">
<svg version="1.1" id="Layer_1" xmlns="http://www.w3.org/2000/svg" xmlns:xlink="http://www.w3.org/1999/xlink" x="0px" y="0px"
	 width="240.94px" height="155.91px" viewBox="0 0 240.94 155.91" enable-background="new 0 0 240.94 155.91" xml:space="preserve">
<g>
	<path fill="#FFFFFF" d="M127.97,123.429h-15V94.055l-10.796-10.796l10.606-10.607l11.044,11.043
		c2.789,2.788,4.146,6.011,4.146,9.851V123.429z"/>
</g>
<circle fill="#FFFFFF" cx="139.959" cy="25.985" r="12.993"/>
<g>
	<g>
		<path fill="#FFFFFF" d="M159.447,101.342c8.445,0,15.591,7.146,15.591,15.591s-7.146,15.591-15.591,15.591
			c-8.445,0-15.591-7.146-15.591-15.591S151.002,101.342,159.447,101.342 M159.447,90.948c-14.292,0-25.985,11.693-25.985,25.985
			s11.693,25.985,25.985,25.985c14.292,0,25.985-11.693,25.985-25.985S173.739,90.948,159.447,90.948L159.447,90.948z"/>
	</g>
</g>
<g>
	<g>
		<path fill="#FFFFFF" d="M81.493,101.342c8.445,0,15.591,7.146,15.591,15.591s-7.146,15.591-15.591,15.591
			s-15.591-7.146-15.591-15.591S73.047,101.342,81.493,101.342 M81.493,90.948c-14.292,0-25.985,11.693-25.985,25.985
			s11.693,25.985,25.985,25.985s25.985-11.693,25.985-25.985S95.784,90.948,81.493,90.948L81.493,90.948z"/>
	</g>
</g>
<path fill="#FFFFFF" d="M148.404,63.014c-16.241-20.138-18.839-24.036-24.036-24.036c-3.898,0-1.299,0-3.248,0
	c-5.197,0-9.095,3.898-27.934,22.737c-7.146,7.146-6.496,16.241,0.65,20.788l22.087,12.993l9.095-6.496l-12.993-8.445l18.189-16.241
	l9.744,10.394c1.949,2.598,5.197,3.898,8.445,3.898h24.036V65.612h-20.138C152.302,65.612,150.845,66.08,148.404,63.014z"/>
</svg>
