<?xml version="1.0" encoding="utf-8"?>
<!-- Generator: Adobe Illustrator 17.0.0, SVG Export Plug-In . SVG Version: 6.00 Build 0)  -->
<!DOCTYPE svg PUBLIC "-//W3C//DTD SVG 1.1//EN" "http://www.w3.org/Graphics/SVG/1.1/DTD/svg11.dtd">
<svg version="1.1" id="Layer_1" xmlns="http://www.w3.org/2000/svg" xmlns:xlink="http://www.w3.org/1999/xlink" x="0px" y="0px"
	 width="227px" height="155.91px" viewBox="7.97 0 227 155.91" enable-background="new 7.97 0 227 155.91" xml:space="preserve">
<g>
	<circle fill="#FFFFFF" cx="113.974" cy="25.985" r="12.993"/>
</g>
<g>
	<polygon fill="#FFFFFF" points="132.813,51.97 135.411,74.057 110.726,85.751 103.58,63.014 	"/>
</g>
<g>
	<path fill="#FFFFFF" d="M139.958,66.214v-9c7.326,0,31.229-3.189,31.229-44.222h9c0,20.764-5.671,35.875-16.856,44.914
		C154.052,65.405,143.895,66.214,139.958,66.214z"/>
</g>
<g>
	<rect x="132.21" y="90.947" fill="#FFFFFF" width="9" height="51.971"/>
</g>
<g>
	<path fill="#FFFFFF" d="M94.233,68.79c-7.914,0-15.398-3.969-19.945-11.113l-0.141-0.231c-4.452-7.631-9.608-16.016-9.66-16.1
		l11.924-7.337c0.052,0.084,5.234,8.51,9.752,16.251c2.722,4.183,7.469,5.634,12.125,3.692l37.004-15.581
		c2.858-1.225,4.993-3.583,5.67-6.289l0.15-0.516c2.48-7.443,5.021-17.573,5.047-17.674l13.582,3.396
		c-0.107,0.431-2.645,10.546-5.27,18.472c-1.799,6.803-6.903,12.582-13.705,15.498l-37.07,15.608
		C100.58,68.165,97.372,68.79,94.233,68.79z"/>
</g>
<g>
	<path fill="#FFFFFF" d="M151.192,122.903l-3.249-29.233c-0.079-0.788-0.348-1.27-0.83-1.55c-0.596-0.348-1.432-0.353-2.254-0.019
		l-29.704,14.852c-4.655,2.328-8.367,7.103-9.235,11.881l-13.774-2.504c1.668-9.177,8.086-17.567,16.749-21.898l30.17-15.077
		c4.947-2.2,10.586-1.952,15.083,0.661c4.385,2.549,7.198,6.989,7.717,12.185l3.241,29.156L151.192,122.903z"/>
</g>
<g>
	<polygon fill="#FFFFFF" points="100.332,142.918 105.529,118.881 92.536,116.283 86.689,142.918 	"/>
</g>
</svg>
