<?xml version="1.0" encoding="utf-8"?>
<!-- Generator: Adobe Illustrator 17.0.0, SVG Export Plug-In . SVG Version: 6.00 Build 0)  -->
<!DOCTYPE svg PUBLIC "-//W3C//DTD SVG 1.1//EN" "http://www.w3.org/Graphics/SVG/1.1/DTD/svg11.dtd">
<svg version="1.1" id="Layer_1" xmlns="http://www.w3.org/2000/svg" xmlns:xlink="http://www.w3.org/1999/xlink" x="0px" y="0px"
	 width="213px" height="155.91px" viewBox="9.47 0 213 155.91" enable-background="new 9.47 0 213 155.91" xml:space="preserve">
<g>
	<circle fill="#FFFFFF" cx="81.493" cy="129.925" r="12.993"/>
	<circle fill="#FFFFFF" cx="134.462" cy="24.985" r="12.993"/>
	<polygon fill="#FFFFFF" points="143.857,59.116 130.214,94.196 99.032,85.751 110.726,57.167 115.273,41.576 141.258,48.722 	"/>
	<g>
		<path fill="#FFFFFF" d="M95.66,78.253L82.915,72.46l3.248-7.146c3.822-8.409,9.928-15.311,17.659-19.964
			c6.983-4.347,14.574-5.74,22.568-4.142l0.23,0.05l10.759,2.532c4.655,0.718,8.612,2.451,12.441,4.129
			c0.651,0.285,1.313,0.575,1.989,0.865l0.586,0.284l29.882,16.241l-6.686,12.301l-29.599-16.087
			c-0.607-0.262-1.203-0.522-1.791-0.78c-3.477-1.523-6.224-2.726-9.132-3.142l-0.614-0.116l-10.919-2.57
			c-4.417-0.857-8.458-0.091-12.351,2.341l-0.108,0.066c-5.311,3.187-9.52,7.954-12.17,13.785L95.66,78.253z"/>
	</g>
	<g>
		
			<rect x="110.479" y="79.311" transform="matrix(0.9359 0.3524 -0.3524 0.9359 45.8793 -34.4182)" fill="#FFFFFF" width="14.001" height="59.001"/>
	</g>
	<g>
		
			<rect x="98.204" y="69.852" transform="matrix(0.9116 0.4111 -0.4111 0.9116 45.4935 -35.4698)" fill="#FFFFFF" width="14" height="36.344"/>
	</g>
</g>
</svg>
