<?xml version="1.0" encoding="utf-8"?>
<!-- Generator: Adobe Illustrator 17.0.0, SVG Export Plug-In . SVG Version: 6.00 Build 0)  -->
<!DOCTYPE svg PUBLIC "-//W3C//DTD SVG 1.1//EN" "http://www.w3.org/Graphics/SVG/1.1/DTD/svg11.dtd">
<svg version="1.1" id="Layer_1" xmlns="http://www.w3.org/2000/svg" xmlns:xlink="http://www.w3.org/1999/xlink" x="0px" y="0px"
	 width="223.97px" height="155.91px" viewBox="16.97 0 223.97 155.91" enable-background="new 16.97 0 223.97 155.91"
	 xml:space="preserve">
<circle fill="#FFFFFF" cx="152.951" cy="25.985" r="12.993"/>
<g>
	<path fill="#FFFFFF" d="M97.733,110.94H68.5v-14h29.233c1.745,0,3.603-0.955,4.871-2.499l1.872-2.496l11.2,8.398l-2.083,2.772
		C109.674,108.016,103.744,110.94,97.733,110.94z"/>
</g>
<g>
	<path fill="#FFFFFF" d="M179.586,79.108h-18.84c-8.089,0-14.978-4.277-18.035-11.178l-5.115-10.231
		c-0.616-1.231-1.437-2.062-2.654-2.684l-10.508-4.945l-8.512-2.644c-0.65-0.26-1.712-0.429-4.19,0.511
		c-7.312,3.956-20.18,10.089-20.734,10.353l-6.02-12.64c0.135-0.064,13.553-6.46,20.446-10.22l0.751-0.354
		c2.018-0.807,8.095-3.238,14.64-0.768l8.682,2.671l11.642,5.481c3.97,1.984,6.99,5.004,8.978,8.976l5.371,10.769
		c0.778,1.818,2.744,2.903,5.258,2.903h18.84V79.108z"/>
</g>
<path fill="#FFFFFF" d="M125.017,45.474l-15.591,27.284c-3.248,5.847-1.949,12.993,3.248,17.54l25.335,18.189l-7.796-18.839
	c0,0-5.197,0.65-3.898-1.299l18.839-33.78L125.017,45.474z"/>
<path fill="#FFFFFF" d="M132.813,110.436l-12.343,32.481h13.642l11.044-27.934c2.599-7.146,1.299-15.591-4.547-20.788
	l-15.591-15.591l-9.095,9.095l15.591,15.591C133.462,105.239,134.112,107.838,132.813,110.436z"/>
</svg>
