<?xml version="1.0" encoding="utf-8"?>
<!-- Generator: Adobe Illustrator 17.0.0, SVG Export Plug-In . SVG Version: 6.00 Build 0)  -->
<!DOCTYPE svg PUBLIC "-//W3C//DTD SVG 1.1//EN" "http://www.w3.org/Graphics/SVG/1.1/DTD/svg11.dtd">
<svg version="1.1" id="Layer_1" xmlns="http://www.w3.org/2000/svg" xmlns:xlink="http://www.w3.org/1999/xlink" x="0px" y="0px"
	 width="219.97px" height="155.91px" viewBox="20.97 0 219.97 155.91" enable-background="new 20.97 0 219.97 155.91"
	 xml:space="preserve">
<circle fill="#FFFFFF" cx="129.289" cy="28.314" r="12.993"/>
<g>
	<path fill="#FFFFFF" d="M79.017,100.067l-3.396-13.582l18.062-4.515c2.418-0.72,4.253-2.316,4.821-4.196l4.654-17.95l0.209-0.487
		c3.134-7.313,10.25-12.038,18.127-12.038h15.591c7.878,0,14.993,4.726,18.127,12.039l0.208,0.487l4.657,17.958
		c0.494,1.683,1.563,3.712,3.86,4l0.419,0.053l18.6,4.649l-3.395,13.582l-17.827-4.456c-7.289-1.096-12.93-6.317-15.14-14.054
		l-0.046-0.166l-4.389-16.926c-0.989-1.91-2.979-3.166-5.075-3.166h-15.591c-2.097,0-4.086,1.256-5.077,3.166l-4.434,17.092
		c-1.898,6.644-7.338,11.841-14.551,13.902l-0.226,0.061L79.017,100.067z"/>
</g>
<polygon fill="#FFFFFF" points="145.53,93.276 145.53,93.276 145.53,60.795 129.289,54.299 113.049,60.795 113.049,93.276 
	113.049,93.276 102.304,98.875 129.289,110.714 156.274,97.875 "/>
<path fill="#FFFFFF" d="M159.172,105.422l-55.868,19.489l4.547,12.343l55.868-19.489c3.248-1.299,5.197-4.547,3.898-8.445l0,0
	C166.318,106.072,163.07,104.123,159.172,105.422z"/>
<g>
	<path fill="#FFFFFF" d="M121.136,112.765l-23.379-8.343c-3.248-1.299-7.146,0.65-8.445,3.898s0.65,7.146,3.898,8.445l8.438,3.146
		L121.136,112.765z"/>
	<polygon fill="#FFFFFF" points="136.136,134.057 151.727,138.254 156.274,126.911 	"/>
</g>
</svg>
